<svg width="21" height="20" viewBox="0 0 21 20" fill="none" xmlns="http://www.w3.org/2000/svg">
<path d="M10.3334 0C4.81337 0 0.333374 4.48 0.333374 10C0.333374 15.52 4.81337 20 10.3334 20C15.8534 20 20.3334 15.52 20.3334 10C20.3334 4.48 15.8534 0 10.3334 0ZM10.3334 18C5.92337 18 2.33337 14.41 2.33337 10C2.33337 5.59 5.92337 2 10.3334 2C14.7434 2 18.3334 5.59 18.3334 10C18.3334 14.41 14.7434 18 10.3334 18ZM14.9234 5.58L8.33337 12.17L5.74337 9.59L4.33337 11L8.33337 15L16.3334 7L14.9234 5.58Z" fill="black"/>
</svg>
